<?xml version="1.0" encoding="UTF-8"?>
<svg id="Livello_2" data-name="Livello 2" xmlns="http://www.w3.org/2000/svg" viewBox="0 0 378.64 156.3">
  <defs>
    <style>
      .cls-1 {
        fill: #1d1d1b;
      }
    </style>
  </defs>
  <g id="Livello_1-2" data-name="Livello 1">
    <g>
      <g>
        <path class="cls-1" d="M26.64,2.39v1.71c-2.5.03-4.21.2-5.12.5-1.59.53-2.39,1.6-2.39,3.22,0,.83.28,1.98.85,3.47.57,1.49,1.63,3.96,3.18,7.41l15.65,34.81,14.21-37.69c.63-1.67,1.1-3.08,1.43-4.24.32-1.16.49-2.1.49-2.83,0-1.95-.83-3.27-2.49-3.97-.98-.4-2.58-.63-4.83-.69v-1.71h20.46v1.71c-2.12.29-3.68.86-4.69,1.71-1.53,1.27-3.04,3.83-4.54,7.67l-22.15,56.25h-1.5L10.5,14.76c-2.08-4.66-3.75-7.56-5-8.7-1.25-1.14-3.08-1.79-5.49-1.96v-1.71h26.64Z"/>
        <path class="cls-1" d="M70.29,47.02c2.99-1.95,8.97-4.61,17.92-7.96v-4.15c0-3.32-.33-5.63-.98-6.93-1.11-2.18-3.4-3.27-6.88-3.27-1.66,0-3.24.42-4.74,1.27-1.5.88-2.25,2.08-2.25,3.61,0,.39.08,1.05.24,1.98.16.93.24,1.52.24,1.78,0,1.82-.6,3.09-1.81,3.81-.68.42-1.5.63-2.44.63-1.46,0-2.59-.48-3.37-1.44-.78-.96-1.17-2.03-1.17-3.2,0-2.28,1.41-4.66,4.22-7.15,2.82-2.49,6.94-3.74,12.38-3.74,6.31,0,10.6,2.05,12.84,6.15,1.2,2.25,1.81,5.52,1.81,9.81v19.58c0,1.89.13,3.19.39,3.91.42,1.27,1.3,1.9,2.64,1.9.75,0,1.37-.11,1.86-.34s1.33-.78,2.54-1.66v2.54c-1.04,1.27-2.17,2.31-3.37,3.12-1.82,1.24-3.68,1.86-5.57,1.86-2.21,0-3.82-.72-4.81-2.15-.99-1.43-1.54-3.14-1.64-5.13-2.47,2.15-4.59,3.74-6.35,4.79-2.96,1.76-5.78,2.64-8.45,2.64-2.8,0-5.22-.98-7.28-2.95s-3.08-4.47-3.08-7.5c0-4.72,2.36-8.66,7.08-11.82ZM88.21,41.5c-3.74,1.24-6.84,2.6-9.28,4.1-4.69,2.9-7.03,6.18-7.03,9.86,0,2.96.98,5.14,2.93,6.54,1.27.91,2.69,1.37,4.25,1.37,2.15,0,4.21-.6,6.18-1.81,1.97-1.2,2.95-2.73,2.95-4.59v-15.48Z"/>
        <path class="cls-1" d="M105.99,67.19c3.03-.29,5.08-.9,6.15-1.83s1.61-2.74,1.61-5.44V12.21c0-2.15-.18-3.63-.54-4.44-.65-1.37-1.97-2.05-3.96-2.05-.46,0-.95.05-1.49.15s-1.21.24-2.03.44v-1.61c4.39-1.17,9.68-2.73,15.87-4.69.23,0,.37.1.42.29s.07.62.07,1.27v58.55c0,2.83.49,4.66,1.46,5.49s2.99,1.36,6.05,1.59v1.37h-23.63v-1.37Z"/>
        <path class="cls-1" d="M166.68,27.51c3.45,3.17,5.18,7.67,5.18,13.5h-31.01c.33,7.54,2.03,13.02,5.13,16.47,3.09,3.44,6.75,5.16,10.99,5.16,3.42,0,6.3-.89,8.64-2.68,2.34-1.79,4.51-4.32,6.49-7.6l1.71.58c-1.33,4.14-3.83,7.97-7.5,11.49-3.66,3.52-8.15,5.28-13.45,5.28-6.12,0-10.85-2.31-14.18-6.93-3.34-4.62-5-9.94-5-15.97,0-6.54,1.94-12.19,5.81-16.94,3.87-4.75,8.92-7.13,15.14-7.13,4.59,0,8.61,1.59,12.06,4.76ZM143.29,31.25c-1.04,1.76-1.79,3.97-2.25,6.64h20.61c-.36-3.25-.98-5.68-1.86-7.28-1.6-2.86-4.26-4.3-8.01-4.3s-6.54,1.64-8.5,4.93Z"/>
        <path class="cls-1" d="M177.91,67.19c2.31-.29,3.93-.87,4.86-1.73s1.39-2.79,1.39-5.79v-24.81c0-2.07-.2-3.52-.59-4.36-.62-1.23-1.89-1.84-3.81-1.84-.29,0-.59.02-.9.05-.31.03-.69.08-1.15.15v-1.71c1.33-.39,4.49-1.4,9.47-3.03l4.59-1.51c.23,0,.37.08.42.24.05.16.07.39.07.68v7.18c2.99-2.8,5.33-4.72,7.02-5.76,2.53-1.59,5.17-2.39,7.9-2.39,2.21,0,4.22.63,6.04,1.9,3.51,2.47,5.26,6.88,5.26,13.23v22.8c0,2.34.47,4.04,1.4,5.08.94,1.04,2.5,1.58,4.7,1.61v1.37h-20.85v-1.37c2.38-.33,4.04-.98,4.98-1.98.94-.99,1.42-3.15,1.42-6.47v-20.85c0-2.8-.52-5.12-1.55-6.96-1.04-1.84-2.95-2.76-5.73-2.76-1.91,0-3.85.65-5.83,1.95-1.1.75-2.53,1.99-4.27,3.71v27.34c0,2.34.52,3.91,1.56,4.71,1.04.8,2.69,1.23,4.93,1.29v1.37h-21.34v-1.37Z"/>
        <path class="cls-1" d="M251.54,23.54v3.52h-9.96l-.1,28.13c0,2.47.21,4.35.63,5.62.78,2.25,2.31,3.37,4.59,3.37,1.17,0,2.19-.28,3.05-.83.86-.55,1.85-1.43,2.95-2.64l1.27,1.07-1.07,1.46c-1.69,2.28-3.48,3.89-5.37,4.83-1.89.94-3.71,1.42-5.47,1.42-3.84,0-6.45-1.71-7.81-5.13-.75-1.86-1.12-4.43-1.12-7.71v-29.59h-5.32c-.16-.1-.29-.2-.37-.29-.08-.1-.12-.23-.12-.39,0-.33.07-.58.22-.76.15-.18.61-.59,1.39-1.25,2.25-1.86,3.87-3.36,4.86-4.52.99-1.16,3.33-4.21,7.01-9.16.42,0,.68.03.76.1.08.07.12.31.12.73v12.01h9.86Z"/>
        <path class="cls-1" d="M255.84,67.19c3.48-.33,5.68-.92,6.59-1.78.91-.86,1.37-3.2,1.37-7.01v-23.29c0-2.12-.15-3.58-.44-4.39-.49-1.33-1.51-2-3.08-2-.36,0-.71.03-1.05.1-.34.07-1.33.33-2.95.78v-1.51l2.1-.68c5.7-1.86,9.67-3.25,11.91-4.2.91-.39,1.5-.59,1.76-.59.06.23.1.47.1.73v35.06c0,3.71.45,6.04,1.34,6.98.9.94,2.92,1.55,6.08,1.81v1.37h-23.73v-1.37ZM263.6,1.9c.98-1,2.18-1.51,3.61-1.51s2.6.49,3.59,1.48c.99.99,1.49,2.19,1.49,3.62s-.5,2.58-1.49,3.57c-.99.99-2.19,1.48-3.59,1.48s-2.64-.49-3.61-1.48c-.98-.99-1.46-2.18-1.46-3.57s.49-2.59,1.46-3.6Z"/>
        <path class="cls-1" d="M283.48,67.19c2.31-.29,3.93-.87,4.86-1.73s1.39-2.79,1.39-5.79v-24.81c0-2.07-.2-3.52-.59-4.36-.62-1.23-1.89-1.84-3.81-1.84-.29,0-.59.02-.9.05-.31.03-.69.08-1.15.15v-1.71c1.33-.39,4.49-1.4,9.47-3.03l4.59-1.51c.23,0,.37.08.42.24.05.16.07.39.07.68v7.18c2.99-2.8,5.33-4.72,7.02-5.76,2.53-1.59,5.17-2.39,7.9-2.39,2.21,0,4.22.63,6.04,1.9,3.51,2.47,5.26,6.88,5.26,13.23v22.8c0,2.34.47,4.04,1.4,5.08.94,1.04,2.5,1.58,4.7,1.61v1.37h-20.85v-1.37c2.38-.33,4.04-.98,4.98-1.98.94-.99,1.42-3.15,1.42-6.47v-20.85c0-2.8-.52-5.12-1.55-6.96-1.04-1.84-2.95-2.76-5.73-2.76-1.91,0-3.85.65-5.83,1.95-1.1.75-2.53,1.99-4.27,3.71v27.34c0,2.34.52,3.91,1.56,4.71,1.04.8,2.69,1.23,4.93,1.29v1.37h-21.34v-1.37Z"/>
        <path class="cls-1" d="M340.38,29.47c4.12-4.48,9.42-6.71,15.89-6.71s11.78,2.12,16.02,6.35c4.23,4.23,6.35,9.86,6.35,16.9,0,6.48-2.05,12.11-6.15,16.89s-9.41,7.18-15.92,7.18-11.54-2.29-15.87-6.88c-4.33-4.59-6.49-10.35-6.49-17.29,0-6.48,2.06-11.96,6.18-16.43ZM348.18,28.22c-3.26,2.96-4.89,8.07-4.89,15.33,0,5.79,1.31,11.2,3.94,16.21,2.63,5.01,6.27,7.52,10.93,7.52,3.65,0,6.47-1.68,8.44-5.03s2.96-7.75,2.96-13.18-1.26-10.94-3.77-15.92c-2.51-4.98-6.15-7.47-10.91-7.47-2.58,0-4.81.85-6.7,2.54Z"/>
      </g>
      <g>
        <path class="cls-1" d="M8.89,153.28c3.84-.36,6.23-1.1,7.18-2.24.94-1.13,1.42-3.77,1.42-7.92v-43.31c0-3.52-.53-5.82-1.59-6.91-1.06-1.09-3.39-1.78-7.01-2.08v-1.86h27.69c5.76,0,10.56.73,14.4,2.19,7.29,2.76,10.94,7.85,10.94,15.26,0,4.97-1.62,8.79-4.86,11.46-3.24,2.67-7.64,4.42-13.21,5.27l20.61,25.38c1.27,1.55,2.54,2.68,3.81,3.39,1.27.71,2.9,1.16,4.88,1.36v1.86h-16.11l-25.01-30.81-4.39.24v19.71c0,3.7.56,6.04,1.68,7.03s3.57,1.65,7.35,1.97v1.86H8.89v-1.86ZM43.07,118.61c5.31-2.18,7.96-6.27,7.96-12.28s-2.38-9.73-7.13-11.84c-2.54-1.14-5.91-1.71-10.11-1.71-2.83,0-4.57.2-5.2.61s-.95,1.36-.95,2.85v24.62c7.19-.26,12.34-1.01,15.43-2.25Z"/>
        <path class="cls-1" d="M109.43,114.09c3.45,3.17,5.18,7.67,5.18,13.5h-31.01c.33,7.54,2.03,13.02,5.13,16.47,3.09,3.44,6.75,5.16,10.99,5.16,3.42,0,6.3-.89,8.64-2.68,2.34-1.79,4.51-4.32,6.49-7.6l1.71.58c-1.33,4.14-3.83,7.97-7.5,11.49-3.66,3.52-8.15,5.28-13.45,5.28-6.12,0-10.85-2.31-14.18-6.93-3.34-4.62-5-9.94-5-15.97,0-6.54,1.94-12.19,5.81-16.94,3.87-4.75,8.92-7.13,15.14-7.13,4.59,0,8.61,1.59,12.06,4.76ZM81.11,104.45l15.62-20.7,15.62,20.7h-3.47l-12.16-10.3-12.16,10.3h-3.47ZM86.04,117.83c-1.04,1.76-1.79,3.97-2.25,6.64h20.61c-.36-3.25-.98-5.68-1.86-7.28-1.6-2.86-4.26-4.3-8.01-4.3s-6.54,1.64-8.5,4.93Z"/>
        <path class="cls-1" d="M140.33,109.77v1.51c-1.69.2-2.89.46-3.59.78-.7.33-1.05,1.04-1.05,2.15,0,.52.07,1.02.22,1.49s.4,1.16.76,2.08l10.25,24.53,8.69-21.65c.42-1.07.82-2.2,1.2-3.37.37-1.17.56-2.07.56-2.69,0-1.27-.6-2.18-1.81-2.73-.72-.29-1.69-.49-2.93-.59v-1.51h13.87v1.51c-1.6.13-2.74.66-3.44,1.59-.7.93-1.72,3.07-3.05,6.42l-14.11,35.16c-.26.62-.47,1.04-.63,1.27-.16.23-.39.34-.68.34-.33,0-.6-.19-.83-.56-.23-.37-.47-.84-.73-1.39l-14.94-35.74c-1.2-2.9-2.49-4.87-3.86-5.91-.81-.59-2-.98-3.56-1.17v-1.51h19.68Z"/>
        <path class="cls-1" d="M203.81,114.09c3.45,3.17,5.18,7.67,5.18,13.5h-31.01c.33,7.54,2.03,13.02,5.13,16.47,3.09,3.44,6.75,5.16,10.99,5.16,3.42,0,6.3-.89,8.64-2.68,2.34-1.79,4.51-4.32,6.49-7.6l1.71.58c-1.33,4.14-3.83,7.97-7.5,11.49-3.66,3.52-8.15,5.28-13.45,5.28-6.12,0-10.85-2.31-14.18-6.93-3.34-4.62-5-9.94-5-15.97,0-6.54,1.94-12.19,5.81-16.94,3.87-4.75,8.92-7.13,15.14-7.13,4.59,0,8.61,1.59,12.06,4.76ZM180.42,117.83c-1.04,1.76-1.79,3.97-2.25,6.64h20.61c-.36-3.25-.98-5.68-1.86-7.28-1.6-2.86-4.26-4.3-8.01-4.3s-6.54,1.64-8.5,4.93Z"/>
        <path class="cls-1" d="M213.67,153.52c2.99-.26,4.98-.79,5.96-1.59s1.46-2.5,1.46-5.1v-22.02c0-3.22-.3-5.53-.9-6.91-.6-1.38-1.7-2.08-3.3-2.08-.33,0-.76.04-1.29.12s-1.1.19-1.68.32v-1.61c1.85-.65,3.75-1.32,5.69-2,1.95-.68,3.29-1.17,4.04-1.46,1.62-.62,3.29-1.32,5.01-2.1.23,0,.36.08.41.24s.07.5.07,1.03v8.01c2.09-2.9,4.1-5.16,6.05-6.79s3.96-2.44,6.05-2.44c1.66,0,3.02.5,4.06,1.49s1.57,2.24,1.57,3.74c0,1.33-.4,2.46-1.2,3.37-.8.91-1.8,1.37-3,1.37s-2.48-.57-3.74-1.71c-1.25-1.14-2.24-1.71-2.95-1.71-1.14,0-2.54.92-4.2,2.76s-2.49,3.74-2.49,5.69v22.02c0,2.8.65,4.74,1.95,5.83,1.3,1.09,3.47,1.6,6.49,1.54v1.61h-24.07v-1.61Z"/>
        <path class="cls-1" d="M248.49,153.76c3.48-.33,5.68-.92,6.59-1.78.91-.86,1.37-3.2,1.37-7.01v-23.29c0-2.12-.15-3.58-.44-4.39-.49-1.33-1.51-2-3.08-2-.36,0-.71.03-1.05.1s-1.33.33-2.95.78v-1.51l2.1-.68c5.7-1.86,9.67-3.25,11.91-4.2.91-.39,1.5-.59,1.76-.59.06.23.1.47.1.73v35.06c0,3.71.45,6.04,1.34,6.98.9.94,2.92,1.55,6.08,1.81v1.37h-23.73v-1.37ZM256.25,88.47c.98-1,2.18-1.51,3.61-1.51s2.6.49,3.59,1.48c.99.99,1.49,2.19,1.49,3.62s-.5,2.58-1.49,3.57c-.99.99-2.19,1.48-3.59,1.48s-2.64-.49-3.61-1.48c-.98-.99-1.46-2.18-1.46-3.57s.49-2.59,1.46-3.6Z"/>
        <path class="cls-1" d="M309.28,114.09c3.45,3.17,5.18,7.67,5.18,13.5h-31.01c.33,7.54,2.03,13.02,5.13,16.47,3.09,3.44,6.75,5.16,10.99,5.16,3.42,0,6.3-.89,8.64-2.68,2.34-1.79,4.51-4.32,6.49-7.6l1.71.58c-1.33,4.14-3.83,7.97-7.5,11.49-3.66,3.52-8.15,5.28-13.45,5.28-6.12,0-10.85-2.31-14.18-6.93-3.34-4.62-5-9.94-5-15.97,0-6.54,1.94-12.19,5.81-16.94,3.87-4.75,8.92-7.13,15.14-7.13,4.59,0,8.61,1.59,12.06,4.76ZM285.89,117.83c-1.04,1.76-1.79,3.97-2.25,6.64h20.61c-.36-3.25-.98-5.68-1.86-7.28-1.6-2.86-4.26-4.3-8.01-4.3s-6.54,1.64-8.5,4.93Z"/>
      </g>
    </g>
  </g>
</svg>